<svg width="22" height="26" viewBox="0 0 22 26" fill="none" xmlns="http://www.w3.org/2000/svg">
<path fill-rule="evenodd" clip-rule="evenodd" d="M15.4233 0C15.6477 1.52441 15.0273 3.01782 14.2087 4.07443C13.333 5.20778 11.8236 6.08435 10.3611 6.0386C10.0942 4.57912 10.7777 3.07538 11.6094 2.06452C12.5218 0.948881 14.0855 0.0929696 15.4233 0ZM19.8166 21.4568C20.5706 20.3013 20.8522 19.7184 21.4375 18.4139C17.1806 16.795 16.4985 10.7432 20.7114 8.42039C19.4264 6.80892 17.6207 5.87479 15.9162 5.87479C14.688 5.87479 13.8465 6.1953 13.0815 6.48667C12.444 6.72948 11.8596 6.95206 11.1488 6.95206C10.3808 6.95206 9.70058 6.70818 8.98837 6.45282C8.20576 6.17221 7.38447 5.87774 6.36536 5.87774C4.45256 5.87774 2.41653 7.0465 1.12568 9.04461C-0.688839 11.8588 -0.379328 17.1492 2.56322 21.656C3.61497 23.269 5.02024 25.0811 6.85823 25.0974C7.62088 25.1049 8.12838 24.8773 8.67757 24.631C9.30616 24.3491 9.98937 24.0426 11.1723 24.0363C12.3622 24.0292 13.0347 24.3394 13.6549 24.6255C14.19 24.8723 14.6862 25.1011 15.4424 25.0929C17.2818 25.0782 18.7649 23.0697 19.8166 21.4568Z" fill="#F3F3F3"/>
</svg>
