<svg width="12" height="25" viewBox="0 0 12 25" fill="none" xmlns="http://www.w3.org/2000/svg">
<path fill-rule="evenodd" clip-rule="evenodd" d="M2.64407 12.5984V24.685C2.64407 24.8573 2.79153 25 2.96949 25H7.60678C7.78475 25 7.9322 24.8573 7.9322 24.685V12.4016H11.2932C11.461 12.4016 11.6034 12.2785 11.6186 12.1112L11.9441 8.41043C11.9593 8.22835 11.8119 8.07087 11.6186 8.07087H7.9322V5.44291C7.9322 4.82776 8.44576 4.33071 9.08136 4.33071H11.6746C11.8525 4.33071 12 4.18799 12 4.01575V0.314961C12 0.142717 11.8576 0 11.6746 0H7.29661C4.72881 0 2.64407 2.01772 2.64407 4.50295V8.07087H0.325424C0.147458 8.07087 0 8.21358 0 8.38583V12.0866C0 12.2589 0.147458 12.4016 0.325424 12.4016H2.64407V12.5984Z" fill="#328BFD"/>
</svg>
