<svg width="23" height="24" viewBox="0 0 23 24" fill="none" xmlns="http://www.w3.org/2000/svg">
<path d="M22.9103 12.2678C22.9103 11.2812 22.8323 10.5611 22.6635 9.81445H11.6895V14.2678H18.1311C18.0012 15.3745 17.2999 17.0412 15.7414 18.1611L15.7195 18.3103L19.1894 21.07L19.4298 21.0946C21.6376 19.0013 22.9103 15.9211 22.9103 12.2678Z" fill="#387FF5"/>
<path d="M11.6874 23.9998C14.8433 23.9998 17.4926 22.9331 19.4277 21.0931L15.7394 18.1597C14.7524 18.8664 13.4277 19.3597 11.6874 19.3597C8.59644 19.3597 5.97305 17.2664 5.03794 14.373L4.90085 14.385L1.2928 17.2517L1.24561 17.3864C3.16771 21.3064 7.1158 23.9998 11.6874 23.9998Z" fill="#34A853"/>
<path d="M5.03895 14.3732C4.79218 13.6265 4.64937 12.8265 4.64937 11.9999C4.64937 11.1731 4.79218 10.3732 5.02591 9.62652L5.01934 9.46748L1.36626 6.55469L1.24672 6.61306C0.454512 8.23973 0 10.0665 0 11.9999C0 13.9332 0.454512 15.7598 1.24672 17.3865L5.03895 14.3732Z" fill="#FBBC05"/>
<path d="M11.6874 4.64003C13.8821 4.64003 15.3627 5.61337 16.2069 6.42679L19.5056 3.1201C17.4796 1.18671 14.8431 0 11.6874 0C7.11579 0 3.16771 2.69335 1.24561 6.61339L5.02489 9.62675C5.97304 6.73342 8.59643 4.64003 11.6874 4.64003Z" fill="#EB4335"/>
</svg>
